<svg width="186" height="81" viewBox="0 0 186 81" fill="none" xmlns="http://www.w3.org/2000/svg">
<g filter="url(#filter0_d_2470_223)">
<path fill-rule="evenodd" clip-rule="evenodd" d="M41.482 2.36014C36.933 4.74073 28.3105 13.6326 26.7286 16.6428C25.1467 19.6531 25.6344 18.5691 25.6344 18.6792C25.6344 18.7893 24.0508 21.1629 23.4541 23.0442L22.3681 26.4643H14.6841H6.5L5 34.5L4.5 44.357H14.0243L20.5813 44.7831L20.7362 48.6172C20.8821 52.2162 23.4279 58.6934 25.686 61.212C26.2393 61.8289 26.9769 62.8207 27.3253 63.4154C28.3219 65.1195 35.4142 69.873 38.828 71.1246C43.9146 72.9898 51.2774 73.4942 58.9344 72.5007C64.7202 71.75 67.6291 70.8051 73.6878 67.7088C77.8384 65.5881 83.0153 62.1442 85.193 60.0558C91.3665 54.1342 92.9246 53.5301 97.0588 55.4548C98.9489 56.335 100.496 57.423 100.496 57.8729C100.496 59.0922 110.052 65.8582 115.483 68.4833C122.137 71.7015 126.716 72.6481 136.15 72.7563C147.756 72.8892 155.439 69.6429 161.393 62.0896C164.555 58.0765 168.114 48.6326 167.455 46.0066C167.069 44.478 167.515 44.357 173.52 44.357L182 45.5L181 35.5L179.5 26L172.828 26.4166L165.656 26.368L162.847 20.2538C159.649 13.2952 155.045 7.79529 149.674 4.51494C147.645 3.27608 145.722 1.86085 145.401 1.37008C145.007 0.768539 128.687 0.399608 95.4032 0.238573L45.99 0L41.482 2.36014Z" fill="#1C4A70"/>
</g>
<defs>
<filter id="filter0_d_2470_223" x="0.5" y="0" width="185.5" height="81" filterUnits="userSpaceOnUse" color-interpolation-filters="sRGB">
<feFlood flood-opacity="0" result="BackgroundImageFix"/>
<feColorMatrix in="SourceAlpha" type="matrix" values="0 0 0 0 0 0 0 0 0 0 0 0 0 0 0 0 0 0 127 0" result="hardAlpha"/>
<feOffset dy="4"/>
<feGaussianBlur stdDeviation="2"/>
<feComposite in2="hardAlpha" operator="out"/>
<feColorMatrix type="matrix" values="0 0 0 0 0 0 0 0 0 0 0 0 0 0 0 0 0 0 0.25 0"/>
<feBlend mode="normal" in2="BackgroundImageFix" result="effect1_dropShadow_2470_223"/>
<feBlend mode="normal" in="SourceGraphic" in2="effect1_dropShadow_2470_223" result="shape"/>
</filter>
</defs>
</svg>
