<svg width="136" height="130" viewBox="0 0 136 130" fill="none" xmlns="http://www.w3.org/2000/svg">
<path d="M5.19553 79.9795L3.82422 72.7573L4.37274 71.9548L6.8411 71.4198L8.2124 70.6173L9.30945 70.3499L10.955 69.8149L12.3263 68.7449L14.2462 68.2099L15.0689 67.675L18.6343 66.07L20.2799 64.7326L21.377 63.3951L21.6512 61.7902L21.1027 59.6503L19.7314 58.3128L17.5373 57.5103L13.6976 55.1029L9.58371 53.7655L11.2293 52.6955L12.6006 52.1606L13.6976 51.3581L15.3432 50.5556L20.5542 47.6132L22.7483 46.2758L26.0394 44.6708L27.9592 43.3334L29.6048 42.5309L32.8959 40.6585L35.3643 39.5885L37.2841 38.5186L39.204 36.9136L41.9466 35.5762L43.8664 34.5062L46.3348 33.1688L52.917 29.1564L57.3052 26.749L61.6934 24.6091L62.7905 23.5392L68.2757 20.8643L68.55 21.6667L69.9213 21.9342L70.1955 22.4692L71.5668 23.2717L73.2124 23.8066L74.858 24.6091L76.7778 25.9466L78.6976 27.0165L81.7145 28.6215L83.3601 29.6914L88.5711 32.0988L98.1702 37.4486L100.364 38.5186L102.558 39.856L105.301 41.1935L107.221 42.2634L116.271 47.3457L122.579 51.3581L124.499 52.1606L125.596 52.963L124.499 54.033L123.677 54.568L122.305 55.3704L120.66 56.4404L118.191 57.5103L116.82 58.5803L115.174 59.9178L114.626 61.2552V62.5927L115.174 63.6626L116.82 64.7326L119.288 66.3375L132.727 72.2223L132.453 73.5597L132.179 75.9671L130.807 81.0494L130.533 81.8519L129.162 87.4692L124.499 97.0988L121.482 102.181L119.837 104.321L111.883 112.881L104.478 118.766L100.364 121.173L93.5078 124.65L87.474 126.79L83.3601 127.86L78.6976 128.93L70.4698 129.733L63.0647 129.465L55.9339 128.395L51.5457 127.593L43.0436 124.65L38.3812 122.51L33.4445 119.568L29.8791 117.161L25.7651 113.683L24.1196 112.346L21.377 109.671L17.8116 105.659L12.8749 98.7038L9.58371 92.5515L7.38962 86.9342L6.29257 83.7243L5.74405 81.8519L5.19553 79.9795Z" fill="url(#paint0_linear_2184_310)"/>
<g filter="url(#filter0_d_2184_310)">
<ellipse cx="68.0011" cy="70.3499" rx="41.962" ry="40.3909" fill="white"/>
</g>
<ellipse cx="47.1555" cy="69.0123" rx="10.1477" ry="10.1646" fill="#D9D9D9"/>
<ellipse cx="43.3177" cy="62.3252" rx="3.01688" ry="2.94239" fill="white"/>
<ellipse cx="47.1555" cy="69.0123" rx="10.1477" ry="10.1646" fill="#023169"/>
<path d="M11.7755 69.2799L4.09622 72.4898L3.5477 71.9548L3.27344 69.2799V65.5351L3.5477 61.2552V59.3828V57.5104L4.09622 54.8355L4.64475 51.8931L5.74179 47.6133L7.93588 40.926L9.85572 36.1112L11.227 33.9713L12.3241 31.8314L13.6954 29.9589L14.5182 28.354L15.6152 27.0166L17.2608 25.1441L18.9063 23.0042L20.2777 21.3993L21.3747 20.3293L22.1975 19.2593L23.0203 18.4569L26.0371 15.782L28.5055 13.9096L30.4253 12.3046L32.8937 10.4322L38.3789 7.4898L42.4928 5.61737L45.2355 4.54741L47.4296 3.74494L51.2692 2.4075L54.0118 1.87252L57.0287 1.07005L61.1426 0.535068L65.2566 0.267578L69.919 0.535068H71.5646L75.9528 1.07005H77.8726L81.7122 1.60503L87.4717 3.20997L91.0371 4.54741L97.0709 7.4898L101.459 9.36223L108.041 13.9096L112.704 18.4569L115.172 20.5968L116.818 22.4692L118.463 24.3417L120.383 27.0166L122.029 29.424L122.303 30.2264L123.674 32.0989L124.771 33.9713L125.32 35.3087L126.691 37.4487L127.24 38.5186L127.788 39.5886L130.257 47.0783L130.805 49.4857L131.354 50.5556V52.6956L132.451 60.4528V62.8602L132.725 64.4651V65.8026V67.675L132.451 69.5474V70.8849L131.628 71.6873L130.531 71.4198L129.16 70.8849L128.062 70.3499L126.143 69.8149L124.771 69.0124L123.674 68.4775L122.303 67.9425L120.109 67.14L117.915 65.8026L116.818 65.0001L114.624 62.3252L115.172 60.1853L116.818 58.8478L117.915 58.3129L119.835 57.2429L121.206 56.1729L122.577 54.8355L124.771 54.033L125.868 52.9631L125.32 52.6956L123.949 51.8931L122.577 51.0906L120.109 49.4857L117.915 48.4157L115.172 47.0783L112.704 45.7408L111.058 44.4034L108.59 43.6009L104.75 41.1935L101.459 39.5886L99.265 37.9836L97.0709 36.9137L94.3283 35.3087L91.8599 33.9713L90.2144 32.9013L87.4717 31.5639L78.6954 26.7491L77.0498 26.2141L71.5646 23.0042L69.919 21.9342L68.2734 21.1318H67.1764L64.9823 22.2017L63.8853 23.0042L60.0456 25.1441L57.8515 26.2141L54.2861 28.354L51.2692 29.9589L47.4296 32.3663L42.7671 34.7738L40.8473 36.1112L38.3789 37.4487L36.7334 38.2511L29.6026 42.2635L26.5857 43.8684L24.9401 44.6709L22.1975 46.2758L20.2777 47.6133L18.3578 48.6832L15.0667 50.5556L12.5983 51.8931L9.58145 53.7655H9.85572L11.227 54.3005L14.5182 55.638L20.0034 58.5803L21.3747 60.1853V62.0577L20.8262 63.6626L18.3578 66.0701L15.0667 67.9425L11.7755 69.2799Z" fill="#21B6F7"/>
<ellipse cx="43.3177" cy="62.3252" rx="3.01688" ry="2.94239" fill="white"/>
<ellipse cx="88.843" cy="69.0123" rx="10.1477" ry="10.1646" fill="#023169"/>
<ellipse cx="85.0052" cy="62.3252" rx="3.01688" ry="2.94239" fill="white"/>
<g filter="url(#filter1_d_2184_310)">
<path d="M4.09766 72.2223C4.75588 71.7943 18.3593 67.675 20.8276 63.6626C23.296 59.6503 18.3593 57.5103 18.3593 57.5103L9.58289 53.498L67.7263 20.8643L126.144 52.963C118.581 58.1939 111.396 60.224 115.996 64.1976C120.597 68.1712 131.904 71.6873 131.904 71.6873" stroke="#3564B1" stroke-width="2" stroke-linecap="round" stroke-linejoin="round"/>
</g>
<circle cx="68" cy="65" r="63.5" stroke="#2B73AD" stroke-width="3"/>
<path d="M44.0831 82.7271C45.5839 85.1261 46.3342 86.8331 46.3342 87.8483C46.3342 88.5796 46.097 89.281 45.6749 89.7982C45.2527 90.3153 44.6801 90.6058 44.0831 90.6058C43.4861 90.6058 42.9135 90.3153 42.4914 89.7982C42.0692 89.281 41.832 88.5796 41.832 87.8483C41.832 86.8331 42.5823 85.1261 44.0831 82.7271Z" fill="#023169"/>
<path d="M92.3773 82.7271C93.9467 85.2672 94.7312 87.0745 94.7312 88.1494C94.7312 88.9238 94.4832 89.6664 94.0418 90.214C93.6003 90.7615 93.0016 91.0692 92.3773 91.0692C91.753 91.0692 91.1543 90.7615 90.7129 90.214C90.2714 89.6664 90.0234 88.9238 90.0234 88.1494C90.0234 87.0745 90.808 85.2672 92.3773 82.7271Z" fill="#023169"/>
<path d="M57.5898 93.6498C69.5313 77.9374 78.016 93.6498 78.016 93.6498" stroke="#023169" stroke-width="5.06493" stroke-linecap="round"/>
<defs>
<filter id="filter0_d_2184_310" x="23.788" y="29.959" width="88.4279" height="85.2839" filterUnits="userSpaceOnUse" color-interpolation-filters="sRGB">
<feFlood flood-opacity="0" result="BackgroundImageFix"/>
<feColorMatrix in="SourceAlpha" type="matrix" values="0 0 0 0 0 0 0 0 0 0 0 0 0 0 0 0 0 0 127 0" result="hardAlpha"/>
<feOffset dy="2.25108"/>
<feGaussianBlur stdDeviation="1.12554"/>
<feComposite in2="hardAlpha" operator="out"/>
<feColorMatrix type="matrix" values="0 0 0 0 0 0 0 0 0 0 0 0 0 0 0 0 0 0 0.25 0"/>
<feBlend mode="normal" in2="BackgroundImageFix" result="effect1_dropShadow_2184_310"/>
<feBlend mode="normal" in="SourceGraphic" in2="effect1_dropShadow_2184_310" result="shape"/>
</filter>
<filter id="filter1_d_2184_310" x="0.846574" y="19.8643" width="134.307" height="57.8601" filterUnits="userSpaceOnUse" color-interpolation-filters="sRGB">
<feFlood flood-opacity="0" result="BackgroundImageFix"/>
<feColorMatrix in="SourceAlpha" type="matrix" values="0 0 0 0 0 0 0 0 0 0 0 0 0 0 0 0 0 0 127 0" result="hardAlpha"/>
<feOffset dy="2.25108"/>
<feGaussianBlur stdDeviation="1.12554"/>
<feComposite in2="hardAlpha" operator="out"/>
<feColorMatrix type="matrix" values="0 0 0 0 0 0 0 0 0 0 0 0 0 0 0 0 0 0 0.25 0"/>
<feBlend mode="normal" in2="BackgroundImageFix" result="effect1_dropShadow_2184_310"/>
<feBlend mode="normal" in="SourceGraphic" in2="effect1_dropShadow_2184_310" result="shape"/>
</filter>
<linearGradient id="paint0_linear_2184_310" x1="121.208" y1="93.0865" x2="55.1595" y2="35.5513" gradientUnits="userSpaceOnUse">
<stop stop-color="#DAD212"/>
<stop offset="1" stop-color="#157EFB"/>
</linearGradient>
</defs>
</svg>
