<svg width="86" height="78" viewBox="0 0 86 78" fill="none" xmlns="http://www.w3.org/2000/svg">
<path d="M6.28313 47.9386L5.48145 43.6097L5.80212 43.1287L7.24516 42.8081L8.04685 42.3271L8.6882 42.1668L9.65022 41.8461L10.4519 41.2048L11.5743 40.8841L12.0553 40.5635L14.1397 39.6015L15.1017 38.7998L15.743 37.9982L15.9034 37.0362L15.5827 35.7536L14.781 34.9519L13.4983 34.471L11.2536 33.028L8.84853 32.2264L9.81056 31.585L10.6122 31.2644L11.2536 30.7834L12.2156 30.3024L15.262 28.5388L16.5447 27.7371L18.4688 26.7752L19.5912 25.9735L20.5532 25.4925L22.4772 24.3702L23.9203 23.7289L25.0426 23.0876L26.165 22.1256L27.7684 21.324L28.8907 20.6826L30.3338 19.881L34.1819 17.4761L36.7473 16.0331L39.3127 14.7505L39.954 14.1092L43.1608 12.5059L43.3211 12.9868L44.1228 13.1472L44.2831 13.4678L45.0848 13.9488L46.0468 14.2695L47.0089 14.7505L48.1312 15.5521L49.2536 16.1934L51.0173 17.1554L51.9793 17.7967L55.0257 19.2397L60.6376 22.4463L61.9203 23.0876L63.203 23.8892L64.8063 24.6909L65.9287 25.3322L71.2198 28.3785L74.9076 30.7834L76.03 31.2644L76.6713 31.7454L76.03 32.3867L75.549 32.7073L74.7473 33.1883L73.7852 33.8296L72.3422 34.471L71.5405 35.1123L70.5785 35.9139L70.2578 36.7156V37.5172L70.5785 38.1585L71.5405 38.7998L72.9836 39.7618L80.8401 43.2891L80.6798 44.0907L80.5194 45.5337L79.7177 48.5799L79.5574 49.0609L78.7557 52.4278L76.03 58.1997L74.2663 61.2459L73.3042 62.5286L68.6544 67.6591L64.3253 71.1863L61.9203 72.6293L57.9118 74.7136L54.3844 75.9962L51.9793 76.6375L49.2536 77.2789L44.4435 77.7598L40.1144 77.5995L35.9456 76.9582L33.3802 76.4772L28.4097 74.7136L25.684 73.431L22.7979 71.6673L20.7135 70.2244L18.3084 68.1401L17.3464 67.3384L15.743 65.7352L13.6587 63.3302L10.7726 59.1617L8.84853 55.4741L7.56583 52.1072L6.92448 50.1832L6.60381 49.0609L6.28313 47.9386Z" fill="url(#paint0_linear_1104_175)"/>
<g filter="url(#filter0_d_1104_175)">
<ellipse cx="43.0004" cy="42.1667" rx="24.5316" ry="24.2097" fill="white"/>
</g>
<path d="M37.8691 51.145C42.657 54.0378 43.106 53.9977 48.2911 51.145" stroke="#023169" stroke-width="3.53" stroke-linecap="round"/>
<ellipse cx="30.8143" cy="41.365" rx="5.93249" ry="6.09251" fill="#D9D9D9"/>
<ellipse cx="28.5694" cy="37.3569" rx="1.76371" ry="1.76362" fill="white"/>
<ellipse cx="30.8143" cy="41.365" rx="5.93249" ry="6.09251" fill="#023169"/>
<path d="M10.1306 41.5253L5.64117 43.4493L5.32049 43.1286L5.16016 41.5253V39.2807L5.32049 36.7155V35.5932V34.4709L5.64117 32.8676L5.96184 31.1039L6.60319 28.5387L7.88589 24.5304L9.00826 21.6445L9.80995 20.3619L10.4513 19.0792L11.253 17.9569L11.734 16.995L12.3753 16.1933L13.3374 15.071L14.2994 13.7884L15.1011 12.8264L15.7424 12.1851L16.2234 11.5438L16.7045 11.0628L18.4682 9.45949L19.9112 8.33719L21.0336 7.37521L22.4766 6.25291L25.6834 4.48929L28.0884 3.36698L29.6918 2.72567L30.9745 2.24468L33.2192 1.44303L34.8226 1.12238L36.5863 0.641388L38.9914 0.32073L41.3964 0.1604L44.1222 0.32073H45.0842L47.6496 0.641388H48.772L51.0167 0.962046L54.3838 1.92402L56.4682 2.72567L59.9956 4.48929L62.561 5.61159L66.4091 8.33719L69.1348 11.0628L70.5779 12.3454L71.5399 13.4677L72.5019 14.59L73.6243 16.1933L74.5863 17.6363L74.7467 18.1173L75.5483 19.2396L76.1897 20.3619L76.5104 21.1635L77.3121 22.4462L77.6327 23.0875L77.9534 23.7288L79.3964 28.218L79.7171 29.661L80.0378 30.3023V31.5849L80.6791 36.2345V37.6774L80.8395 38.6394V39.4411V40.5634L80.6791 41.6857V42.4873L80.1981 42.9683L79.5568 42.808L78.7551 42.4873L78.1137 42.1667L76.9914 41.846L76.1897 41.365L75.5483 41.0443L74.7467 40.7237L73.464 40.2427L72.1813 39.4411L71.5399 38.9601L70.2572 37.3568L70.5779 36.0741L71.5399 35.2725L72.1813 34.9518L73.3036 34.3105L74.1053 33.6692L74.907 32.8676L76.1897 32.3866L76.831 31.7453L76.5104 31.5849L75.7087 31.1039L74.907 30.6229L73.464 29.661L72.1813 29.0197L70.5779 28.218L69.1348 27.4164L68.1728 26.6147L66.7298 26.1337L64.4851 24.6908L62.561 23.7288L61.2783 22.7668L59.9956 22.1255L58.3922 21.1635L56.9492 20.3619L55.9872 19.7206L54.3838 18.9189L49.253 16.033L48.291 15.7123L45.0842 13.7884L44.1222 13.1471L43.1602 12.6661H42.5188L41.2361 13.3074L40.5948 13.7884L38.35 15.071L37.0673 15.7123L34.9829 16.995L33.2192 17.9569L30.9745 19.3999L28.2488 20.8429L27.1264 21.6445L25.6834 22.4462L24.7213 22.9271L20.5526 25.3321L18.7888 26.2941L17.8268 26.775L16.2234 27.737L15.1011 28.5387L13.9787 29.18L12.0547 30.3023L10.6116 31.1039L8.84792 32.2262H9.00826L9.80995 32.5469L11.734 33.3485L14.9407 35.1122L15.7424 36.0741V37.1964L15.4218 38.1584L13.9787 39.6014L12.0547 40.7237L10.1306 41.5253Z" fill="url(#paint1_linear_1104_175)"/>
<ellipse cx="28.5694" cy="37.3569" rx="1.76371" ry="1.76362" fill="white"/>
<ellipse cx="55.1854" cy="41.365" rx="5.93249" ry="6.09251" fill="#023169"/>
<ellipse cx="52.9405" cy="37.3569" rx="1.76371" ry="1.76362" fill="white"/>
<g filter="url(#filter1_d_1104_175)">
<path d="M5.6416 43.2891C6.02641 43.0325 13.9792 40.5635 15.4222 38.1585C16.8652 35.7536 13.9792 34.471 13.9792 34.471L8.84835 32.066L42.8399 12.5059L76.9918 31.7454C72.5705 34.8807 68.3699 36.0975 71.0593 38.4792C73.7487 40.8609 80.3589 42.9684 80.3589 42.9684" stroke="#3564B1" stroke-width="2" stroke-linecap="round" stroke-linejoin="round"/>
</g>
<path d="M79.5 39.0002C79.5 59.7479 63.1219 76.5002 43 76.5002C22.8781 76.5002 6.5 59.7479 6.5 39.0002C6.5 18.2526 22.8781 1.50024 43 1.50024C63.1219 1.50024 79.5 18.2526 79.5 39.0002Z" stroke="#2B73AD" stroke-width="3"/>
<defs>
<filter id="filter0_d_1104_175" x="14.4688" y="17.957" width="57.0635" height="56.4194" filterUnits="userSpaceOnUse" color-interpolation-filters="sRGB">
<feFlood flood-opacity="0" result="BackgroundImageFix"/>
<feColorMatrix in="SourceAlpha" type="matrix" values="0 0 0 0 0 0 0 0 0 0 0 0 0 0 0 0 0 0 127 0" result="hardAlpha"/>
<feOffset dy="4"/>
<feGaussianBlur stdDeviation="2"/>
<feComposite in2="hardAlpha" operator="out"/>
<feColorMatrix type="matrix" values="0 0 0 0 0 0 0 0 0 0 0 0 0 0 0 0 0 0 0.25 0"/>
<feBlend mode="normal" in2="BackgroundImageFix" result="effect1_dropShadow_1104_175"/>
<feBlend mode="normal" in="SourceGraphic" in2="effect1_dropShadow_1104_175" result="shape"/>
</filter>
<filter id="filter1_d_1104_175" x="0.641602" y="11.5059" width="84.7178" height="40.7832" filterUnits="userSpaceOnUse" color-interpolation-filters="sRGB">
<feFlood flood-opacity="0" result="BackgroundImageFix"/>
<feColorMatrix in="SourceAlpha" type="matrix" values="0 0 0 0 0 0 0 0 0 0 0 0 0 0 0 0 0 0 127 0" result="hardAlpha"/>
<feOffset dy="4"/>
<feGaussianBlur stdDeviation="2"/>
<feComposite in2="hardAlpha" operator="out"/>
<feColorMatrix type="matrix" values="0 0 0 0 0 0 0 0 0 0 0 0 0 0 0 0 0 0 0.25 0"/>
<feBlend mode="normal" in2="BackgroundImageFix" result="effect1_dropShadow_1104_175"/>
<feBlend mode="normal" in="SourceGraphic" in2="effect1_dropShadow_1104_175" result="shape"/>
</filter>
<linearGradient id="paint0_linear_1104_175" x1="74.1059" y1="55.7947" x2="34.6646" y2="22.2839" gradientUnits="userSpaceOnUse">
<stop stop-color="#DAD212"/>
<stop offset="1" stop-color="#157EFB"/>
</linearGradient>
<linearGradient id="paint1_linear_1104_175" x1="42.9998" y1="0.1604" x2="43.1601" y2="77.2788" gradientUnits="userSpaceOnUse">
<stop stop-color="#21B6F7"/>
<stop offset="1" stop-color="#21B6F7" stop-opacity="0"/>
</linearGradient>
</defs>
</svg>
